<svg xmlns="http://www.w3.org/2000/svg" xmlns:xlink="http://www.w3.org/1999/xlink" xml:space="preserve" viewBox="-10 -10 148 148" width="256" style="background:white"><defs><radialGradient xlink:href="#a" id="n" cx="69.47" cy="162.61" r="87.55" fx="69.47" fy="162.61" gradientTransform="matrix(-.3503 -.01966 .02364 -.42124 92.73 122.69)" gradientUnits="userSpaceOnUse"/><radialGradient xlink:href="#b" id="g" cx="87.55" cy="87.55" r="87.55" fx="87.55" fy="87.55" gradientUnits="userSpaceOnUse"/><radialGradient xlink:href="#c" id="j" cx="89.04" cy="24.49" r="73.14" fx="89.04" fy="24.49" gradientTransform="matrix(.35224 .35223 -.26427 .26427 64.15 -6)" gradientUnits="userSpaceOnUse"/><radialGradient xlink:href="#d" id="k" cx="89.04" cy="24.49" r="73.14" fx="89.04" fy="24.49" gradientTransform="matrix(.35224 .35223 -.26427 .26427 64.15 -6)" gradientUnits="userSpaceOnUse"/><radialGradient xlink:href="#e" id="l" cx="89.04" cy="24.49" r="73.14" fx="89.04" fy="24.49" gradientTransform="matrix(.35224 .35223 -.26427 .26427 64.15 -6)" gradientUnits="userSpaceOnUse"/><radialGradient xlink:href="#f" id="m" cx="89.04" cy="24.49" r="73.14" fx="89.04" fy="24.49" gradientTransform="matrix(.35224 .35223 -.26427 .26427 64.15 -6)" gradientUnits="userSpaceOnUse"/><radialGradient xlink:href="#b" id="h" cx="87.55" cy="87.55" r="87.55" fx="87.55" fy="87.55" gradientUnits="userSpaceOnUse"/><radialGradient xlink:href="#b" id="i" cx="87.55" cy="87.55" r="87.55" fx="87.55" fy="87.55" gradientUnits="userSpaceOnUse"/><linearGradient id="c"><stop offset="0" stop-color="#65c0ee"/><stop offset="1" stop-color="#a4dff9" stop-opacity=".71"/></linearGradient><linearGradient id="d"><stop offset="0" stop-color="#65ddee"/><stop offset="1" stop-color="#a4dff9" stop-opacity=".71"/></linearGradient><linearGradient id="e"><stop offset="0" stop-color="#65c0ee"/><stop offset="1" stop-color="#a4dff9" stop-opacity=".71"/></linearGradient><linearGradient id="f"><stop offset="0" stop-color="#50a6ee"/><stop offset="1" stop-color="#b9e4f9" stop-opacity=".71"/></linearGradient><linearGradient id="b"><stop offset="0" stop-color="#061c31"/><stop offset="1" stop-color="#2d4354"/></linearGradient><linearGradient id="a"><stop offset="0" stop-color="#f7f7f7"/><stop offset="1" stop-color="#cddaeb" stop-opacity="0"/></linearGradient></defs><path fill="#2d79c7" d="M61.34 43.43c8.83-.13 18.61.94 20.69 3.08 3.68 3.8 3.27 31.83-.54 35.52-3.8 3.68-31.83 3.26-35.51-.54-3.7-3.8-3.27-31.83.53-35.52 1.66-1.6 7.96-2.44 14.83-2.54z"/><g fill="url(#g)" transform="matrix(.73097 0 0 .73097 0 0)"><path fill="url(#h)" d="M14.87 0c-2.14 0-1.7 1.14-7.7 7.1C-2.4 16.66.44 9.8.41 23.34.38 36.86-2.44 30 7.11 39.6c3.99 4 5.1 5.78 6.05 6.56V73.3A14.57 14.57 0 0 0 1.58 87.55a14.57 14.57 0 0 0 11.58 14.22v27.19c-.93.82-2.11 2.63-5.99 6.5C-2.4 145 .44 138.14.41 151.67c0 5.08-.41 7.28-.41 8.56 0 2.14 1.14 1.7 7.1 7.7 9.55 9.58 2.7 6.73 16.23 6.76 13.53.02 6.67 2.85 16.26-6.7 4-3.99 5.82-5.1 6.6-6.06h27.1a14.57 14.57 0 0 0 14.26 11.59 14.57 14.57 0 0 0 14.23-11.59h27.18c.82.94 2.64 2.12 6.5 6 9.54 9.58 2.7 6.73 16.22 6.76 5.08 0 7.28.41 8.56.4 2.14 0 1.7-1.13 7.7-7.1 9.58-9.55 6.73-2.7 6.76-16.22.02-13.54 2.85-6.67-6.7-16.26-3.99-4-5.1-5.78-6.05-6.56v-27.15a14.57 14.57 0 0 0 11.58-14.26 14.57 14.57 0 0 0-11.58-14.22V46.15c.93-.82 2.11-2.64 5.99-6.5 9.58-9.54 6.73-2.7 6.76-16.22 0-5.08.41-7.28.4-8.56 0-2.14-1.13-1.7-7.1-7.7-9.55-9.58-2.7-6.73-16.22-6.76-13.54-.03-6.67-2.85-16.26 6.7-4 3.98-5.82 5.1-6.6 6.05H101.8A14.57 14.57 0 0 0 87.55 1.58a14.57 14.57 0 0 0-14.22 11.58H46.15c-.82-.93-2.64-2.11-6.5-5.99C30.11-2.4 36.95.44 23.43.41 18.35.41 16.15 0 14.87 0Zm2.25 6.19c.94 0 2.56.3 6.3.3 9.95.02 4.9-2.08 11.93 4.97 7.02 7.05 4.94 2 4.92 11.95-.02 9.96 2.08 4.92-4.97 11.94s-2 4.94-11.95 4.92c-9.96-.02-4.92 2.08-11.94-4.97s-4.94-2-4.92-11.95c.02-9.96-2.08-4.92 4.97-11.94 4.4-4.39 4.09-5.22 5.66-5.22Zm128.35 0c.94 0 2.56.3 6.3.3 9.94.02 4.9-2.08 11.93 4.97 4.39 4.4 5.22 4.09 5.22 5.66 0 .94-.3 2.56-.3 6.3-.02 9.95 2.08 4.9-4.97 11.93-7.05 7.02-2 4.94-11.96 4.92-9.95-.02-4.9 2.08-11.93-4.97-7.02-7.05-4.94-2-4.92-11.95.02-9.96-2.08-4.92 4.97-11.94 4.4-4.39 4.09-5.22 5.66-5.22zM87.55 7.6a8.54 8.54 0 1 1 0 17.08 8.54 8.54 0 0 1 0-17.08zM46.47 19.14h26.86a14.57 14.57 0 0 0 14.22 11.58 14.57 14.57 0 0 0 14.23-11.58h26.89c.05 1.12.1 2.5.1 4.2-.04 12.68-2.52 7.44 5.05 14.64l-21.6 21.6 4.22 4.23 21.55-21.56c5.74 6.32 1.62 4.07 13.7 4.1 1.75 0 3.13.05 4.28.12v26.86a14.57 14.57 0 0 0-11.58 14.22 14.57 14.57 0 0 0 11.58 14.23v26.89c-1.12.05-2.5.1-4.2.1-12.68-.04-7.44-2.52-14.64 5.04l-21.6-21.6-4.23 4.23 21.56 21.55c-6.32 5.74-4.07 1.62-4.1 13.7 0 1.75-.05 3.13-.12 4.28h-26.86a14.57 14.57 0 0 0-14.23-11.58 14.57 14.57 0 0 0-14.22 11.58H46.44c-.05-1.12-.1-2.5-.1-4.2.03-12.69 2.52-7.44-5.05-14.64l21.6-21.6-4.22-4.23-21.55 21.56c-5.74-6.32-1.62-4.08-13.7-4.1-1.75 0-3.14-.05-4.28-.12v-26.87a14.57 14.57 0 0 0 11.58-14.22 14.57 14.57 0 0 0-11.58-14.22V46.44c1.12-.05 2.5-.1 4.2-.1 12.68.03 7.44 2.52 14.64-5.05l21.6 21.6 4.23-4.22-21.56-21.55c6.32-5.74 4.07-1.62 4.1-13.7 0-1.75.05-3.14.12-4.28zM16.15 79a8.54 8.54 0 1 1 0 17.09 8.54 8.54 0 0 1 0-17.09zm142.8 0a8.54 8.54 0 1 1 0 17.09 8.54 8.54 0 0 1 0-17.09zM17.13 134.53c.94 0 2.56.3 6.3.3 9.95.03 4.9-2.07 11.93 4.98 7.02 7.05 4.94 2 4.92 11.95-.02 9.95 2.08 4.91-4.97 11.94-4.4 4.39-4.09 5.22-5.66 5.22-.94 0-2.56-.3-6.3-.3-9.95-.02-4.9 2.08-11.93-4.97-4.39-4.4-5.22-4.09-5.22-5.66 0-.94.3-2.56.3-6.3.02-9.95-2.08-4.9 4.97-11.93 4.4-4.39 4.09-5.22 5.66-5.23zm128.35 0c.94 0 2.56.3 6.3.3 9.94.03 4.9-2.07 11.93 4.98 7.02 7.05 4.94 2 4.92 11.95-.02 9.95 2.08 4.91-4.97 11.94-4.4 4.39-4.09 5.22-5.66 5.22-.94 0-2.56-.3-6.3-.3-9.95-.02-4.9 2.08-11.93-4.97-7.02-7.05-4.94-2-4.92-11.96.02-9.95-2.08-4.9 4.97-11.93 4.4-4.39 4.09-5.22 5.66-5.23zm-57.92 15.89a8.54 8.54 0 1 1 0 17.08 8.54 8.54 0 0 1 0-17.08z"/><path fill="url(#i)" d="M83.48 56.06c-10.52.16-20.16 1.42-22.71 3.9-5.82 5.64-6.46 48.56-.81 54.38 5.64 5.82 48.56 6.46 54.38.81s6.46-48.56.81-54.38c-3.17-3.28-18.14-4.91-31.67-4.71zm.82 6.32c10.81-.16 22.78 1.15 25.32 3.76 4.51 4.65 4 38.96-.65 43.48-4.66 4.51-38.96 4-43.48-.65-4.51-4.66-4-38.96.65-43.48 2.04-1.97 9.75-2.99 18.16-3.11z"/></g><path fill="url(#j)" d="M114.8 57.6c-2.1 2.1-22.09 2.1-24.19 0-2.1-2.1-2.1-22.09 0-24.18 2.1-2.1 22.1-2.1 24.2 0 2.09 2.1 2.09 22.09 0 24.18z" transform="matrix(.48124 0 0 .48124 61.46 89.21)"/><path fill="url(#k)" d="M114.8 57.6c-2.1 2.1-22.09 2.1-24.19 0-2.1-2.1-2.1-22.09 0-24.18 2.1-2.1 22.1-2.1 24.2 0 2.09 2.1 2.09 22.09 0 24.18z" transform="rotate(-90 77.65 -11.33) scale(.48124)"/><path fill="url(#l)" d="M114.8 57.6c-2.1 2.1-22.09 2.1-24.19 0-2.1-2.1-2.1-22.09 0-24.18 2.1-2.1 22.1-2.1 24.2 0 2.09 2.1 2.09 22.09 0 24.18z" transform="rotate(179.78 33.27 19.4) scale(.48124)"/><path fill="url(#m)" d="M114.8 57.6c-2.1 2.1-22.09 2.1-24.19 0-2.1-2.1-2.1-22.09 0-24.18 2.1-2.1 22.1-2.1 24.2 0 2.09 2.1 2.09 22.09 0 24.18z" transform="rotate(90 -11.33 50.35) scale(.48124)"/><path fill="url(#n)" d="M10.87 0C9.3 0 9.62.83 5.24 5.2-1.76 12.16.32 7.15.3 17.05c-.02 9.89-2.09 4.87 4.9 11.88 2.91 2.93 3.73 4.22 4.42 4.8v19.84A10.65 10.65 0 0 0 1.16 64a10.65 10.65 0 0 0 8.46 10.4v19.86c-.68.6-1.54 1.93-4.38 4.75-7 6.98-4.92 1.97-4.94 11.86 0 3.71-.3 5.33-.3 6.26 0 1.56.83 1.25 5.2 5.63 6.97 7 1.96 4.92 11.86 4.94 9.89.02 4.87 2.09 11.88-4.9 2.92-2.91 4.25-3.73 4.82-4.42h19.82A10.65 10.65 0 0 0 64 126.84a10.65 10.65 0 0 0 10.4-8.46h19.86c.6.68 1.93 1.54 4.75 4.38 6.98 7 1.97 4.92 11.87 4.94 3.7 0 5.32.3 6.25.3 1.56 0 1.25-.83 5.63-5.2 7-6.97 4.92-1.97 4.94-11.86.02-9.89 2.09-4.87-4.9-11.88-2.91-2.93-3.73-4.22-4.42-4.8V74.43A10.65 10.65 0 0 0 126.84 64a10.65 10.65 0 0 0-8.46-10.4V33.73c.68-.6 1.54-1.92 4.38-4.74 7-6.98 4.92-1.97 4.94-11.87 0-3.7.3-5.32.3-6.25 0-1.56-.83-1.25-5.2-5.63-6.97-7-1.97-4.92-11.86-4.94-9.89-.02-4.87-2.09-11.88 4.9-2.92 2.9-4.25 3.73-4.82 4.42H74.42A10.65 10.65 0 0 0 64 1.16a10.65 10.65 0 0 0-10.4 8.46H33.73c-.6-.68-1.92-1.54-4.74-4.38C22-1.76 27.02.32 17.12.3c-3.7 0-5.32-.3-6.25-.3Zm1.64 4.52c.7 0 1.88.22 4.6.22 7.28.02 3.6-1.52 8.73 3.64 5.13 5.15 3.61 1.46 3.6 8.74-.02 7.27 1.52 3.59-3.64 8.72-5.15 5.13-1.46 3.61-8.74 3.6-7.27-.02-3.59 1.52-8.72-3.64-5.13-5.15-3.61-1.46-3.6-8.74.02-7.27-1.52-3.59 3.64-8.72 3.22-3.2 2.99-3.82 4.13-3.82Zm93.82 0c.7 0 1.88.22 4.6.22 7.28.02 3.6-1.52 8.73 3.64 3.2 3.22 3.82 2.99 3.82 4.13 0 .7-.22 1.88-.22 4.6-.02 7.28 1.52 3.6-3.64 8.73-5.15 5.13-1.46 3.61-8.74 3.6-7.27-.02-3.59 1.52-8.72-3.64-5.13-5.15-3.61-1.46-3.6-8.74.02-7.27-1.52-3.59 3.64-8.72 3.22-3.2 2.98-3.82 4.13-3.82zM64 5.56a6.24 6.24 0 1 1 0 12.49 6.24 6.24 0 0 1 0-12.49zm-46.88 4.75c-2.66 0-5.32.25-5.82.76-1.01 1-1.01 10.63 0 11.64 1 1 10.63 1 11.64 0 1-1.01 1-10.64 0-11.64-.5-.5-3.17-.76-5.82-.76zm93.76 0c-2.65 0-5.31.25-5.82.76-1 1-1 10.63 0 11.64 1.01 1 10.63 1 11.64 0 1.01-1.01 1.01-10.64 0-11.64-.5-.5-3.16-.76-5.82-.76zm-76.91 3.68H53.6A10.65 10.65 0 0 0 64 22.45 10.65 10.65 0 0 0 74.4 14h19.65c.04.82.07 1.83.07 3.07-.02 9.27-1.84 5.44 3.7 10.7L82.27 43.31c-4.13-1.65-13.04-2.45-21.25-2.33-5.92.09-11.46.66-14.54 1.74l-15.6-15.59c4.62-4.2 2.98-1.18 3-10 0-1.29.04-2.3.09-3.14zm-6.2 16.2L43.3 45.71c-2.83 7.12-3.16 28.45-.58 35.8l-15.59 15.6c-4.2-4.62-1.18-2.98-10-3-1.29 0-2.3-.04-3.14-.09V74.4A10.65 10.65 0 0 0 22.45 64 10.65 10.65 0 0 0 14 53.6V33.95c.82-.04 1.83-.07 3.07-.07 9.27.02 5.44 1.84 10.7-3.7zm73.1.7c4.2 4.61 1.18 2.97 10 2.99a57 57 0 0 1 3.14.09V53.6a10.65 10.65 0 0 0-8.46 10.4A10.65 10.65 0 0 0 114 74.4v19.65a58 58 0 0 1-3.07.07c-9.27-.02-5.44-1.84-10.7 3.7L84.7 82.27c2.83-7.12 3.16-28.45.58-35.8zM11.8 57.75a6.24 6.24 0 1 1 0 12.5 6.24 6.24 0 0 1 0-12.5zm104.4 0a6.24 6.24 0 1 1 0 12.5 6.24 6.24 0 0 1 0-12.5zM45.72 84.7c7.12 2.83 28.45 3.16 35.8.58l15.6 15.59c-4.62 4.2-2.98 1.18-3 10 0 1.29-.04 2.3-.09 3.14H74.4A10.65 10.65 0 0 0 64 105.55 10.65 10.65 0 0 0 53.6 114H33.95c-.04-.82-.07-1.83-.07-3.07.02-9.27 1.84-5.44-3.7-10.7zm-33.2 13.64c.68 0 1.87.22 4.6.22 7.27.02 3.59-1.52 8.72 3.64 5.13 5.15 3.61 1.46 3.6 8.73-.02 7.28 1.52 3.6-3.64 8.73-3.22 3.2-2.98 3.82-4.13 3.82-.7 0-1.88-.22-4.6-.22-7.28-.02-3.6 1.52-8.73-3.64-3.2-3.22-3.82-2.99-3.82-4.13 0-.7.22-1.88.22-4.6.02-7.28-1.52-3.6 3.64-8.73 3.22-3.2 2.99-3.82 4.13-3.82zm93.81 0c.7 0 1.88.22 4.6.22 7.28.02 3.6-1.52 8.73 3.64 5.13 5.15 3.61 1.46 3.6 8.73-.02 7.28 1.52 3.6-3.64 8.73-3.22 3.2-2.99 3.82-4.13 3.82-.7 0-1.88-.22-4.6-.22-7.28-.02-3.6 1.52-8.73-3.64-5.13-5.15-3.61-1.46-3.6-8.74.02-7.27-1.52-3.59 3.64-8.72 3.22-3.2 2.98-3.82 4.13-3.82zm-89.21 6.2c-2.66 0-5.32.25-5.82.75-1.01 1.01-1.01 10.64 0 11.64 1 1.01 10.63 1.01 11.64 0 1-1 1-10.63 0-11.64-.5-.5-3.17-.75-5.82-.75zm93.76 0c-2.65 0-5.31.25-5.82.75-1 1.01-1 10.64 0 11.64 1.01 1.01 10.63 1.01 11.64 0 1.01-1 1.01-10.63 0-11.64-.5-.5-3.16-.75-5.82-.75zM64 109.95a6.24 6.24 0 1 1 0 12.49 6.24 6.24 0 0 1 0-12.49z" style="mix-blend-mode:overlay"/></svg>
