<?xml version="1.0" encoding="UTF-8" standalone="no"?>
<!-- Created with Inkscape (http://www.inkscape.org/) -->

<svg
   width="128mm"
   height="127.99962mm"
   viewBox="0 0 128 127.99962"
   version="1.1"
   id="svg1"
   xml:space="preserve"
   sodipodi:docname="logo.is.svg"
   inkscape:version="1.3.2 (091e20ef0f, 2023-11-25, custom)"
   xmlns:inkscape="http://www.inkscape.org/namespaces/inkscape"
   xmlns:sodipodi="http://sodipodi.sourceforge.net/DTD/sodipodi-0.dtd"
   xmlns:xlink="http://www.w3.org/1999/xlink"
   xmlns="http://www.w3.org/2000/svg"
   xmlns:svg="http://www.w3.org/2000/svg"><sodipodi:namedview
     id="namedview1"
     pagecolor="#ffffff"
     bordercolor="#000000"
     borderopacity="0.25"
     inkscape:showpageshadow="2"
     inkscape:pageopacity="0.0"
     inkscape:pagecheckerboard="0"
     inkscape:deskcolor="#d1d1d1"
     inkscape:document-units="mm"
     showguides="false"
     inkscape:zoom="1"
     inkscape:cx="254.5"
     inkscape:cy="240"
     inkscape:window-width="2510"
     inkscape:window-height="1440"
     inkscape:window-x="0"
     inkscape:window-y="0"
     inkscape:window-maximized="1"
     inkscape:current-layer="layer1"><sodipodi:guide
       position="47.473829,155.5575"
       orientation="1,0"
       id="guide29"
       inkscape:locked="false" /><sodipodi:guide
       position="47.473829,141.89034"
       orientation="0,-1"
       id="guide30"
       inkscape:locked="false" /></sodipodi:namedview><defs
     id="defs1"><linearGradient
       id="linearGradient64"
       inkscape:collect="always"><stop
         style="stop-color:#65c0ee;stop-opacity:1;"
         offset="0"
         id="stop63" /><stop
         style="stop-color:#a4dff9;stop-opacity:0.70685828;"
         offset="1"
         id="stop64" /></linearGradient><linearGradient
       id="linearGradient62"
       inkscape:collect="always"><stop
         style="stop-color:#65ddee;stop-opacity:1;"
         offset="0"
         id="stop61" /><stop
         style="stop-color:#a4dff9;stop-opacity:0.70588237;"
         offset="1"
         id="stop62" /></linearGradient><linearGradient
       id="linearGradient60"
       inkscape:collect="always"><stop
         style="stop-color:#65c0ee;stop-opacity:1;"
         offset="0"
         id="stop59" /><stop
         style="stop-color:#a4dff9;stop-opacity:0.70588237;"
         offset="1"
         id="stop60" /></linearGradient><linearGradient
       id="linearGradient49"
       inkscape:collect="always"><stop
         style="stop-color:#50a6ee;stop-opacity:1;"
         offset="0"
         id="stop50" /><stop
         style="stop-color:#b9e4f9;stop-opacity:0.70685828;"
         offset="1"
         id="stop51" /></linearGradient><linearGradient
       id="linearGradient48"
       inkscape:collect="always"><stop
         style="stop-color:#061c31;stop-opacity:1;"
         offset="0"
         id="stop48" /><stop
         style="stop-color:#2d4354;stop-opacity:1;"
         offset="1"
         id="stop49" /></linearGradient><linearGradient
       id="linearGradient43"
       inkscape:collect="always"><stop
         style="stop-color:#f7f7f7;stop-opacity:1;"
         offset="0"
         id="stop43" /><stop
         style="stop-color:#cddaeb;stop-opacity:0;"
         offset="1"
         id="stop44" /></linearGradient><radialGradient
       inkscape:collect="always"
       xlink:href="#linearGradient43"
       id="radialGradient44"
       cx="69.473381"
       cy="162.61464"
       fx="69.473381"
       fy="162.61464"
       r="87.55442"
       gradientTransform="matrix(-0.35030371,-0.01965647,0.02363707,-0.42124316,92.72697,122.68711)"
       gradientUnits="userSpaceOnUse" /><radialGradient
       inkscape:collect="always"
       xlink:href="#linearGradient48"
       id="radialGradient49"
       cx="87.554428"
       cy="87.554169"
       fx="87.554428"
       fy="87.554169"
       r="87.554428"
       gradientTransform="matrix(1,0,0,0.99999703,0,2.6026577e-4)"
       gradientUnits="userSpaceOnUse" /><radialGradient
       inkscape:collect="always"
       xlink:href="#linearGradient64"
       id="radialGradient52"
       gradientUnits="userSpaceOnUse"
       gradientTransform="matrix(0.35223546,0.35223371,-0.26426636,0.26426505,64.15139,-5.9925594)"
       cx="89.042549"
       cy="24.493408"
       fx="89.042549"
       fy="24.493408"
       r="73.135437" /><radialGradient
       inkscape:collect="always"
       xlink:href="#linearGradient62"
       id="radialGradient56"
       gradientUnits="userSpaceOnUse"
       gradientTransform="matrix(0.35223546,0.35223371,-0.26426636,0.26426505,64.15139,-5.9925594)"
       cx="89.042549"
       cy="24.493408"
       fx="89.042549"
       fy="24.493408"
       r="73.135437" /><radialGradient
       inkscape:collect="always"
       xlink:href="#linearGradient60"
       id="radialGradient57"
       gradientUnits="userSpaceOnUse"
       gradientTransform="matrix(0.35223546,0.35223371,-0.26426636,0.26426505,64.15139,-5.9925594)"
       cx="89.042549"
       cy="24.493408"
       fx="89.042549"
       fy="24.493408"
       r="73.135437" /><radialGradient
       inkscape:collect="always"
       xlink:href="#linearGradient49"
       id="radialGradient58"
       gradientUnits="userSpaceOnUse"
       gradientTransform="matrix(0.35223546,0.35223371,-0.26426636,0.26426505,64.15139,-5.9925594)"
       cx="89.042549"
       cy="24.493408"
       fx="89.042549"
       fy="24.493408"
       r="73.135437" /><radialGradient
       inkscape:collect="always"
       xlink:href="#linearGradient48"
       id="radialGradient68"
       gradientUnits="userSpaceOnUse"
       gradientTransform="matrix(1,0,0,0.99999703,0,2.6026577e-4)"
       cx="87.554428"
       cy="87.554169"
       fx="87.554428"
       fy="87.554169"
       r="87.554428" /><radialGradient
       inkscape:collect="always"
       xlink:href="#linearGradient48"
       id="radialGradient69"
       gradientUnits="userSpaceOnUse"
       gradientTransform="matrix(1,0,0,0.99999703,0,2.6026577e-4)"
       cx="87.554428"
       cy="87.554169"
       fx="87.554428"
       fy="87.554169"
       r="87.554428" /></defs><g
     inkscape:label="Layer 1"
     inkscape:groupmode="layer"
     id="layer1"
     transform="translate(7.8642643e-5,7.851708e-5)"><path
       id="path33"
       style="fill:#2d79c7;fill-opacity:1;stroke-width:0.146195"
       inkscape:transform-center-x="1.3515602e-06"
       d="m 61.340088,43.431196 c 8.833595,-0.131222 18.609772,0.936759 20.684867,3.074885 3.689055,3.801114 3.269988,31.829833 -0.531125,35.518889 -3.801114,3.68904 -31.82984,3.269564 -35.518888,-0.531557 -3.689051,-3.801114 -3.269987,-31.829832 0.531127,-35.518882 1.662989,-1.61396 7.96344,-2.441275 14.834019,-2.543335 z"
       inkscape:label="mid square fill"
       sodipodi:nodetypes="ssssss"
       inkscape:transform-center-y="-1.4749073e-06" /><g
       id="g47"
       inkscape:label="contour"
       style="fill:url(#radialGradient49);fill-opacity:1"
       transform="matrix(0.73097355,0,0,0.73097355,-2.1155028e-5,-2.1122083e-5)"><path
         id="path2"
         style="fill:url(#radialGradient68);fill-opacity:1;stroke-width:0.2"
         d="M 14.865839,8.1275554e-5 C 12.730653,0.00438128 13.165042,1.1378963 7.1727694,7.1055903 -2.4148676,16.653903 0.43974841,9.8018663 0.41194241,23.333024 c -0.02781,13.53116 -2.85466401,6.666668 6.69364799,16.254305 3.9914046,4.007845 5.1114016,5.779901 6.0580276,6.558773 V 73.298963 C 6.4165934,74.711874 1.5834874,80.66053 1.5818964,87.553913 c 0.0177,6.880575 4.847199,12.810567 11.5817216,14.220837 v 27.18284 c -0.932777,0.81796 -2.115931,2.63723 -5.9908486,6.49624 -9.587637,9.54831 -6.73301899,2.69628 -6.76082799,16.22743 -0.0104,5.07419 -0.41443,7.28012 -0.411861003189,8.56124 C 0.00408041,162.37768 1.1378954,161.94329 7.1055904,167.93557 c 9.5483066,9.58763 2.69627,6.73303 16.2274326,6.76083 13.531149,0.0278 6.66666,2.85466 16.254305,-6.69366 4.004788,-3.98836 5.823327,-5.11185 6.603215,-6.05802 h 27.10894 c 1.412933,6.74703 7.361561,11.58013 14.254943,11.58172 6.88057,-0.0177 12.810584,-4.8472 14.220844,-11.58172 h 27.18284 c 0.81796,0.93278 2.63722,2.11593 6.49624,5.99084 9.54831,9.58764 2.69628,6.73303 16.22743,6.76084 5.07419,0.0104 7.28012,0.4144 8.56124,0.41186 2.13517,-0.004 1.7008,-1.13782 7.69307,-7.10551 9.58763,-9.54831 6.73303,-2.69627 6.76083,-16.22744 0.0278,-13.53115 2.85466,-6.66667 -6.69365,-16.2543 -3.9914,-4.00785 -5.1114,-5.7794 -6.05803,-6.55826 v -27.15338 c 6.74703,-1.41291 11.58013,-7.361562 11.58172,-14.25494 -0.0177,-6.880584 -4.8472,-12.810568 -11.58172,-14.220842 V 46.150753 c 0.93278,-0.817966 2.11593,-2.63723 5.99085,-6.496245 9.58763,-9.548313 6.73302,-2.696276 6.76083,-16.227433 0.0104,-5.074184 0.41443,-7.280122 0.41186,-8.561235 -0.004,-2.135185 -1.13782,-1.700797 -7.10551,-7.6930697 -9.54831,-9.5876371 -2.69628,-6.73302102 -16.22744,-6.76082802 -13.53114,-0.02781 -6.66666,-2.85466348 -16.2543,6.69364802 -4.00479,3.9883607 -5.82332,5.1118547 -6.60321,6.0580277 l -27.10894,1e-6 C 100.39644,6.4165653 94.447816,1.5834863 87.554426,1.5818973 80.673854,1.5995973 74.743852,6.4290963 73.333592,13.163619 H 46.150751 C 45.332787,12.230844 43.513522,11.047679 39.654508,7.1727703 30.106195,-2.4148654 36.958232,0.43974928 23.427074,0.41194228 18.35289,0.40151228 16.146951,-0.00248672 14.865839,8.1275554e-5 Z M 17.118416,6.1857503 c 0.942167,-0.0019 2.564544,0.295155 6.296256,0.302824 9.951233,0.02045 4.912032,-2.079254 11.934155,4.9717887 7.022124,7.051046 4.943147,2.003079 4.922697,11.95431 -0.02045,9.951231 2.079253,4.912032 -4.971789,11.934155 -7.051046,7.022122 -2.003079,4.943146 -11.95431,4.922697 C 13.394194,40.251075 18.433393,42.35078 11.41127,35.299735 4.3891484,28.248692 6.4681244,33.296657 6.4885734,23.345426 6.5090234,13.394193 4.4093174,18.433393 11.460363,11.411271 15.867265,7.0224443 15.548132,6.1888983 17.118416,6.1857503 Z m 128.348764,0 c 0.94219,-0.0019 2.56454,0.295155 6.29626,0.302824 9.95123,0.02045 4.91202,-2.079256 11.93415,4.9717897 4.38882,4.406901 5.22237,4.087769 5.22552,5.658052 0.002,0.942168 -0.29517,2.564543 -0.30282,6.296256 -0.0204,9.951233 2.07924,4.912033 -4.9718,11.934155 -7.05104,7.022125 -2.00307,4.943148 -11.95431,4.922698 -9.95123,-0.02045 -4.91202,2.079253 -11.93415,-4.97179 -7.02213,-7.051045 -4.94315,-2.003077 -4.9227,-11.954309 0.0205,-9.95123 -2.07925,-4.912033 4.97179,-11.934155 4.40691,-4.3888267 4.08774,-5.2224127 5.65806,-5.2255207 z m -57.912754,1.420585 c 4.71824,1e-6 8.54315,3.8249077 8.54315,8.5431477 1e-5,4.718242 -3.82491,8.543148 -8.54315,8.543147 -4.71823,-1e-6 -8.543152,-3.824906 -8.543152,-8.543147 0,-4.718241 3.824902,-8.5431487 8.543152,-8.5431477 z M 46.467528,19.135347 h 26.866064 c 1.410254,6.734523 7.340262,11.564021 14.220834,11.581722 6.88058,-0.0177 12.810564,-4.8472 14.220844,-11.581722 h 26.89035 c 0.0569,1.127948 0.0986,2.501767 0.0951,4.197677 -0.0261,12.690549 -2.51351,7.442033 5.05448,14.650268 l -21.60179,21.601783 4.223,4.22248 21.55475,-21.554756 c 5.73935,6.313824 1.62111,4.070554 13.69065,4.095357 1.75493,0.0036 3.14255,0.0547 4.29172,0.119373 v 26.866059 c -6.73453,1.410275 -11.56402,7.340264 -11.58172,14.220841 0.0177,6.880579 4.84721,12.810571 11.58172,14.220841 v 26.88983 c -1.12795,0.0569 -2.50176,0.0991 -4.19767,0.0956 -12.69056,-0.0261 -7.44203,-2.51403 -14.65027,5.05395 l -21.60179,-21.60178 -4.22247,4.223 21.55475,21.55475 c -6.31382,5.73935 -4.07107,1.62111 -4.09587,13.69064 -0.004,1.75493 -0.0542,3.14256 -0.11886,4.29173 h -26.86606 c -1.41026,-6.73453 -7.340274,-11.56402 -14.220844,-11.58172 -6.880572,0.0177 -12.810567,4.84721 -14.220834,11.58172 H 46.44326 c -0.0569,-1.12795 -0.09858,-2.50177 -0.09509,-4.19767 0.0261,-12.69056 2.513515,-7.44205 -5.054471,-14.65028 l 21.601783,-21.60177 -4.222999,-4.22249 -21.554756,21.55476 c -5.739341,-6.31381 -1.621107,-4.07056 -13.690638,-4.09536 -1.754936,-0.004 -3.142562,-0.0547 -4.291727,-0.11937 V 101.77475 C 25.869888,100.36447 30.699385,94.434488 30.717084,87.553907 30.699384,80.67333 25.869878,74.743338 19.135361,73.333072 l 1e-6,-26.889831 c 1.127948,-0.0569 2.501767,-0.09857 4.197676,-0.09509 12.690549,0.02608 7.442034,2.513519 14.650269,-5.054472 L 59.585074,62.895466 63.807553,58.672468 42.252798,37.117712 c 6.313824,-5.739345 4.071072,-1.621108 4.095874,-13.690637 0.0036,-1.754929 0.05419,-3.142559 0.118856,-4.291728 z M 16.149482,79.010766 c 4.718245,-6e-6 8.54315,3.824906 8.543148,8.543141 -1e-6,4.718251 -3.824903,8.543151 -8.543148,8.543151 -4.718237,0 -8.5431496,-3.8249 -8.5431466,-8.543145 1e-6,-4.718242 3.8249096,-8.543142 8.5431466,-8.543147 z m 142.809898,5.15e-4 c 4.71823,-5e-6 8.54315,3.824907 8.54315,8.543149 0,4.718238 -3.82492,8.543138 -8.54315,8.543148 -4.71825,0 -8.54315,-3.82492 -8.54315,-8.543149 -1e-5,-4.718249 3.8249,-8.543149 8.54315,-8.543148 z M 17.118415,134.53399 c 0.942192,-0.002 2.564544,0.29516 6.296257,0.30283 9.951234,0.0204 4.912031,-2.07926 11.934155,4.97178 7.022131,7.05105 4.943148,2.00308 4.922697,11.95431 -0.0205,9.95123 2.079253,4.91204 -4.971789,11.93416 -4.406909,4.38882 -4.087739,5.22241 -5.658053,5.22552 -0.942187,0.002 -2.564545,-0.29516 -6.296257,-0.30283 -9.951234,-0.0205 -4.912031,2.07927 -11.934155,-4.97178 -4.3888216,-4.4069 -5.2223726,-4.08777 -5.2255206,-5.65806 -0.002,-0.94217 0.295168,-2.56455 0.302824,-6.29625 0.0204,-9.95125 -2.079246,-4.91204 4.9717896,-11.93416 4.406902,-4.38883 4.087732,-5.22241 5.658052,-5.22552 z m 128.348765,0 c 0.94219,-0.002 2.56454,0.29515 6.29625,0.30282 9.95123,0.0204 4.91203,-2.07925 11.93416,4.97179 7.02212,7.05104 4.94314,2.00308 4.9227,11.95431 -0.0205,9.95123 2.07926,4.91203 -4.9718,11.93416 -4.40689,4.38882 -4.08776,5.22237 -5.65805,5.22552 -0.94216,0.002 -2.56454,-0.29515 -6.29626,-0.30282 -9.95122,-0.0205 -4.91203,2.07924 -11.93415,-4.9718 -7.02212,-7.05104 -4.94315,-2.00306 -4.9227,-11.95431 0.0204,-9.95123 -2.07925,-4.91203 4.97179,-11.93415 4.40691,-4.38882 4.08773,-5.22241 5.65806,-5.22552 z m -57.912754,15.88172 c 4.71824,-1e-5 8.54315,3.82491 8.54315,8.54315 1e-5,4.71824 -3.82491,8.54314 -8.54315,8.54314 -4.71823,1e-5 -8.543152,-3.8249 -8.543152,-8.54314 0,-4.71824 3.824922,-8.54315 8.543152,-8.54315 z"
         sodipodi:nodetypes="ssssccccccscssscccccsscssscccccsccssscccccsssssssssssssssscsssscsssssssscccsccccscccccsccccccccccsccccccccccsccccscssssssssssssscsccscsssssscscsscssssssss"
         inkscape:label="frame contour" /><path
         id="path15"
         style="fill:url(#radialGradient69);fill-opacity:1;stroke-width:0.200001"
         inkscape:transform-center-x="1.3501201e-06"
         d="m 83.481806,56.060225 c -10.519914,0.156271 -20.166534,1.423631 -22.712825,3.894853 -5.820094,5.648506 -6.462411,48.564702 -0.813905,54.384802 5.648506,5.82009 48.564704,6.46188 54.384794,0.81338 5.8201,-5.64851 6.46242,-48.564701 0.81391,-54.384795 -3.17729,-3.273803 -18.146364,-4.90916 -31.671974,-4.70824 z m 0.81701,6.318478 c 10.81213,-0.160612 22.777964,1.146573 25.317834,3.763594 4.51532,4.652482 4.00239,38.959033 -0.65009,43.474353 -4.65248,4.51531 -38.959037,4.00188 -43.474352,-0.65061 -4.51532,-4.65248 -4.002394,-38.959031 0.650088,-43.474349 2.035462,-1.975452 9.747079,-2.988068 18.15652,-3.112988 z"
         inkscape:label="mid square contour" /></g><path
       sodipodi:type="star"
       style="fill:url(#radialGradient52);fill-opacity:1;stroke-width:0.303789"
       id="path32"
       inkscape:flatsided="true"
       sodipodi:sides="4"
       sodipodi:cx="102.70897"
       sodipodi:cy="45.510399"
       sodipodi:r1="17.10408"
       sodipodi:r2="12.094412"
       sodipodi:arg1="0.78539816"
       sodipodi:arg2="1.5707963"
       inkscape:rounded="0.1225445"
       inkscape:randomized="0"
       d="m 114.80338,57.60481 c -2.09601,2.096011 -22.092811,2.096011 -24.188822,0 -2.096011,-2.096011 -2.096011,-22.092811 0,-24.188822 2.096011,-2.096011 22.092812,-2.096011 24.188822,0 2.09601,2.096011 2.09601,22.092811 0,24.188822 z"
       transform="matrix(0.48123651,0,0,0.48123889,61.455978,89.212428)" /><path
       sodipodi:type="star"
       style="fill:url(#radialGradient56);fill-opacity:1;stroke-width:0.303789"
       id="path55"
       inkscape:flatsided="true"
       sodipodi:sides="4"
       sodipodi:cx="102.70897"
       sodipodi:cy="45.510399"
       sodipodi:r1="17.10408"
       sodipodi:r2="12.094412"
       sodipodi:arg1="0.78539816"
       sodipodi:arg2="1.5707963"
       inkscape:rounded="0.1225445"
       inkscape:randomized="0"
       d="m 114.80338,57.60481 c -2.09601,2.096011 -22.092811,2.096011 -24.188822,0 -2.096011,-2.096011 -2.096011,-22.092811 0,-24.188822 2.096011,-2.096011 22.092812,-2.096011 24.188822,0 2.09601,2.096011 2.09601,22.092811 0,24.188822 z"
       inkscape:transform-center-x="2.8982336e-06"
       transform="matrix(0,-0.48123651,0.48123889,0,88.981908,66.312975)"
       inkscape:transform-center-y="1.5213095e-06" /><path
       sodipodi:type="star"
       style="fill:url(#radialGradient57);fill-opacity:1;stroke-width:0.303789"
       id="path56"
       inkscape:flatsided="true"
       sodipodi:sides="4"
       sodipodi:cx="102.70897"
       sodipodi:cy="45.510399"
       sodipodi:r1="17.10408"
       sodipodi:r2="12.094412"
       sodipodi:arg1="0.78539816"
       sodipodi:arg2="1.5707963"
       inkscape:rounded="0.1225445"
       inkscape:randomized="0"
       d="m 114.80338,57.60481 c -2.09601,2.096011 -22.092811,2.096011 -24.188822,0 -2.096011,-2.096011 -2.096011,-22.092811 0,-24.188822 2.096011,-2.096011 22.092812,-2.096011 24.188822,0 2.09601,2.096011 2.09601,22.092811 0,24.188822 z"
       transform="matrix(-0.48123651,0,0,-0.48123889,66.544045,38.787044)"
       inkscape:transform-center-y="2.531365e-06" /><path
       sodipodi:type="star"
       style="fill:url(#radialGradient58);fill-opacity:1;stroke-width:0.303789"
       id="path57"
       inkscape:flatsided="true"
       sodipodi:sides="4"
       sodipodi:cx="102.70897"
       sodipodi:cy="45.510399"
       sodipodi:r1="17.10408"
       sodipodi:r2="12.094412"
       sodipodi:arg1="0.78539816"
       sodipodi:arg2="1.5707963"
       inkscape:rounded="0.1225445"
       inkscape:randomized="0"
       d="m 114.80338,57.60481 c -2.09601,2.096011 -22.092811,2.096011 -24.188822,0 -2.096011,-2.096011 -2.096011,-22.092811 0,-24.188822 2.096011,-2.096011 22.092812,-2.096011 24.188822,0 2.09601,2.096011 2.09601,22.092811 0,24.188822 z"
       inkscape:transform-center-x="-2.9273026e-06"
       transform="matrix(0,0.48123651,-0.48123889,0,39.018115,61.686493)"
       inkscape:transform-center-y="-1.6159243e-06" /><path
       id="path37"
       style="mix-blend-mode:overlay;fill:url(#radialGradient44);stroke-width:0.146195"
       inkscape:label="glare"
       d="M 10.866455,-2.1122083e-5 C 9.3056924,0.00312206 9.6232127,0.83169622 5.2430246,5.1939183 -1.7652774,12.173476 0.32136389,7.1648343 0.30103847,17.055743 c -0.0203284,9.89091 -2.08667667,4.873165 4.89287983,11.881467 2.9176082,2.929626 3.7363008,4.224955 4.4282586,4.79429 v 19.848025 c -4.9318919,1.0328 -8.4647697,5.381111 -8.4659327,10.419987 0.012938,5.029513 3.5431795,9.364189 8.4659327,10.395059 V 94.2645 c -0.6818346,0.597907 -1.5466925,1.927753 -4.3791523,4.748587 -7.008302,6.979553 -4.92165851,1.970913 -4.94198613,11.861823 -0.007602,3.7091 -0.30293749,5.32157 -0.301059625028,6.25804 C 0.00290274,118.6937 0.83169546,118.37618 5.1939183,122.75638 c 6.9795527,7.0083 1.9709124,4.92166 11.8618247,4.94198 9.890902,0.0203 4.873159,2.08669 11.881467,-4.89287 2.927391,-2.91539 4.256698,-3.73664 4.826775,-4.42826 h 19.815918 c 1.032815,4.93189 5.381112,8.46477 10.419987,8.46593 5.029509,-0.0129 9.364191,-3.54318 10.395053,-8.46593 H 94.26488 c 0.597907,0.68183 1.927746,1.54669 4.74858,4.37915 6.97955,7.0083 1.97092,4.92165 11.86183,4.94198 3.70909,0.008 5.32157,0.30292 6.25803,0.30106 1.56075,-0.003 1.24325,-0.83172 5.62343,-5.19393 7.0083,-6.97957 4.92167,-1.97091 4.94199,-11.86183 0.0203,-9.8909 2.08667,-4.87317 -4.89288,-11.881466 -2.9176,-2.929632 -3.7363,-4.224589 -4.42826,-4.793915 V 74.419877 c 4.9319,-1.0328 8.46478,-5.381115 8.46594,-10.419987 -0.0129,-5.02952 -3.54318,-9.364184 -8.46594,-10.395057 V 33.734899 c 0.68184,-0.597911 1.5467,-1.927748 4.37915,-4.748583 7.0083,-6.979557 4.92166,-1.970917 4.94199,-11.861824 0.008,-3.709091 0.30294,-5.321578 0.30106,-6.258037 -0.003,-1.5607618 -0.83172,-1.2432415 -5.19394,-5.6234303 -6.97956,-7.0083021 -1.97091,-4.92166004 -11.86182,-4.9419862 -9.8909,-0.0203284 -4.87317,-2.0866763 -11.881473,4.8928798 -2.927388,2.9153832 -4.256693,3.736632 -4.826772,4.4282587 H 74.419877 C 73.387055,4.6902638 69.03877,1.1574058 63.99989,1.1562442 58.970379,1.1691825 54.635695,4.6994236 53.604833,9.622177 H 33.734899 C 33.136989,8.9403438 31.80715,8.0754779 28.986316,5.2430247 22.006759,-1.7652764 27.0154,0.32136466 17.124492,0.3010385 13.415401,0.29341445 11.802914,-0.00189825 10.866455,-2.1122083e-5 Z M 12.513029,4.5215392 c 0.688698,-0.00139 1.874617,0.2157505 4.602397,0.2213563 7.274081,0.014948 3.590571,-1.5198739 8.723552,3.6342464 5.132982,5.1541231 3.61331,1.4642043 3.598361,8.7382841 -0.01495,7.27408 1.519873,3.590571 -3.634247,8.723552 -5.154123,5.13298 -1.464204,3.613309 -8.738283,3.598361 C 9.7907292,29.422391 13.474238,30.957215 8.3412569,25.803092 3.2082767,20.648971 4.7279478,24.338888 4.7428955,17.064809 4.7578439,9.7907278 3.2230194,13.474237 8.3771418,8.3412569 11.598468,5.1331438 11.365194,4.5238403 12.513029,4.5215392 Z m 93.819541,0 c 0.68872,-0.00139 1.87461,0.2157505 4.6024,0.2213563 7.27408,0.014948 3.59057,-1.5198761 8.72355,3.6342464 3.20811,3.2213251 3.81742,2.9880531 3.81972,4.1358871 0.001,0.688699 -0.21576,1.874616 -0.22136,4.602397 -0.0149,7.274081 1.51987,3.590572 -3.63424,8.723552 -5.15412,5.132982 -1.4642,3.61331 -8.73829,3.598361 -7.27408,-0.01495 -3.59056,1.519874 -8.72355,-3.634247 -5.132986,-5.154122 -3.613306,-1.464203 -3.598358,-8.738283 0.01498,-7.274079 -1.519877,-3.590572 3.634248,-8.7235521 3.22133,-3.2081131 2.98802,-3.8174458 4.13588,-3.8197177 z M 63.99989,5.5599494 c 3.448905,8e-7 6.244814,2.7959102 6.244814,6.2448156 8e-6,3.448906 -2.795909,6.244816 -6.244814,6.244815 -3.448899,-10e-7 -6.244815,-2.79591 -6.244815,-6.244815 0,-3.4489061 2.795902,-6.2448163 6.244815,-6.2448156 z M 17.116559,10.30891 c -2.657977,0 -5.315894,0.252275 -5.820234,0.756615 -1.008681,1.008682 -1.008681,10.631787 0,11.640468 1.008681,1.008681 10.632165,1.008681 11.640846,0 1.008681,-1.008681 1.008681,-10.631786 0,-11.640468 -0.504341,-0.50434 -3.162635,-0.756615 -5.820612,-0.756615 z m 93.766661,0 c -2.65797,0 -5.3159,0.252275 -5.82024,0.756615 -1.00867,1.008682 -1.00867,10.631787 0,11.640468 1.00868,1.008681 10.6318,1.008681 11.64047,0 1.00868,-1.008681 1.00868,-10.631786 0,-11.640468 -0.50433,-0.50434 -3.16226,-0.756615 -5.82023,-0.756615 z m -76.916766,3.678442 h 19.638379 c 1.030858,4.922753 5.365546,8.452994 10.395057,8.465933 5.029517,-0.01294 9.364176,-3.54318 10.395053,-8.465933 h 19.656135 c 0.04159,0.8245 0.07207,1.828726 0.06952,3.068391 -0.01908,9.276446 -1.83731,5.439934 3.694683,10.708958 L 82.273113,43.306857 c -4.128231,-1.644675 -13.0444,-2.450291 -21.250201,-2.328396 -5.925936,0.08803 -11.461799,0.660701 -14.54643,1.744409 L 30.885598,27.131985 c 4.615234,-4.195305 2.975846,-1.184996 2.993976,-10.007493 0.0026,-1.282805 0.03961,-2.297128 0.08688,-3.13714 z m -6.201753,16.197159 15.537623,15.537622 c -2.829507,7.117135 -3.162898,28.447298 -0.579832,35.801162 L 27.131985,97.113806 c -4.195302,-4.615228 -1.184994,-2.975472 -10.007493,-2.9936 -1.282811,-0.0029 -2.297131,-0.03998 -3.13714,-0.08726 V 74.394571 c 4.922755,-1.030878 8.452995,-5.365541 8.465933,-10.395059 -0.01294,-5.029515 -3.543184,-9.36419 -8.465933,-10.395056 V 33.9487 c 0.8245,-0.04159 1.828727,-0.07205 3.068391,-0.0695 9.276446,0.01906 5.439934,1.837311 10.708958,-3.694684 z m 73.103089,0.701087 c 4.19531,4.615234 1.18499,2.975467 10.0075,2.993598 1.28281,0.0026 2.29713,0.03998 3.13714,0.08726 v 19.638379 c -4.92276,1.030873 -8.453,5.365542 -8.46594,10.395057 0.0129,5.029516 3.54319,9.364183 8.46594,10.395053 V 94.0507 c -0.8245,0.04159 -1.82873,0.07244 -3.06839,0.06988 -9.27646,-0.01908 -5.43994,-1.837682 -10.70896,3.694304 L 84.697833,82.277638 c 2.82962,-7.116854 3.162564,-28.4476 0.579457,-35.801541 z M 11.804765,57.754697 c 3.448908,-5e-6 6.244816,2.795914 6.244815,6.244815 -10e-7,3.448913 -2.795907,6.244815 -6.244815,6.244815 -3.4489033,0 -6.2448178,-2.795906 -6.2448156,-6.244815 7e-7,-3.448906 2.7959123,-6.244812 6.2448156,-6.244815 z m 104.390255,3.78e-4 c 3.44889,-4e-6 6.24481,2.795908 6.24481,6.244815 0,3.448903 -2.79592,6.244807 -6.24481,6.244814 -3.44892,0 -6.24482,-2.795917 -6.24482,-6.244814 -10e-6,-3.448912 2.7959,-6.244816 6.24482,-6.244815 z M 45.721378,84.697833 c 7.116621,2.829723 28.44855,3.162403 35.802297,0.579077 l 15.590504,15.5905 c -4.615228,4.19532 -2.975845,1.185 -2.993973,10.0075 -0.0029,1.28281 -0.03962,2.29713 -0.08688,3.13714 h -19.63838 c -1.030862,-4.92276 -5.365544,-8.45299 -10.395053,-8.46593 -5.029511,0.0129 -9.364189,3.54319 -10.395057,8.46593 H 33.9487 c -0.04159,-0.8245 -0.07205,-1.82873 -0.0695,-3.06839 0.01908,-9.27646 1.837307,-5.43994 -3.694684,-10.70896 z M 12.513029,98.340709 c 0.688717,-0.0015 1.874616,0.215746 4.602397,0.221353 7.274082,0.01491 3.59057,-1.51987 8.723552,3.634248 5.132987,5.15412 3.61331,1.4642 3.598361,8.73828 -0.01499,7.27408 1.519873,3.59057 -3.634247,8.72355 -3.22133,3.20811 -2.98803,3.81745 -4.135886,3.81973 -0.688713,0.001 -1.874618,-0.21576 -4.602397,-0.22137 -7.274082,-0.015 -3.59057,1.51989 -8.7235521,-3.63424 -3.2081094,-3.22132 -3.8174166,-2.98805 -3.8197177,-4.13589 -0.00146,-0.6887 0.2157599,-1.87462 0.2213563,-4.6024 0.014912,-7.27409 -1.5198688,-3.59057 3.6342463,-8.72354 3.2213262,-3.208123 2.9880262,-3.817448 4.1358872,-3.819721 z m 93.819541,0 c 0.68872,-0.0015 1.87462,0.215746 4.6024,0.221353 7.27408,0.01491 3.59057,-1.51987 8.72355,3.634248 5.13298,5.15412 3.61331,1.4642 3.59836,8.73828 -0.015,7.27408 1.51989,3.59057 -3.63424,8.72355 -3.22132,3.20811 -2.98805,3.81742 -4.13589,3.81973 -0.68869,0.001 -1.87461,-0.21576 -4.6024,-0.22137 -7.27407,-0.015 -3.59057,1.51988 -8.72355,-3.63424 -5.132979,-5.15412 -3.613306,-1.46419 -3.598358,-8.73829 0.01491,-7.27408 -1.519877,-3.59057 3.634248,-8.72354 3.22133,-3.208116 2.98801,-3.817448 4.13588,-3.819721 z m -89.216011,6.196461 c -2.657977,0 -5.315894,0.25189 -5.820234,0.75624 -1.008681,1.00868 -1.008681,10.63216 0,11.64085 1.008681,1.00867 10.632165,1.00867 11.640846,0 1.008681,-1.00869 1.008681,-10.63217 0,-11.64085 -0.504341,-0.50435 -3.162635,-0.75624 -5.820612,-0.75624 z m 93.766661,0 c -2.65797,0 -5.3159,0.25189 -5.82024,0.75624 -1.00867,1.00868 -1.00867,10.63216 0,11.64085 1.00868,1.00867 10.6318,1.00867 11.64047,0 1.00868,-1.00869 1.00868,-10.63217 0,-11.64085 -0.50433,-0.50435 -3.16226,-0.75624 -5.82023,-0.75624 z m -46.88333,5.41265 c 3.448905,0 6.244814,2.79591 6.244814,6.24482 8e-6,3.4489 -2.795909,6.24481 -6.244814,6.24481 -3.448899,1e-5 -6.244815,-2.79591 -6.244815,-6.24481 0,-3.44891 2.795916,-6.24481 6.244815,-6.24482 z" /></g></svg>
